<svg width="99" height="98" viewBox="0 0 99 98" fill="none" xmlns="http://www.w3.org/2000/svg">
<rect x="0.666626" width="98" height="98" rx="49" fill="url(#paint0_linear_1_1820)" fill-opacity="0.05"/>
<rect x="12.6666" y="12" width="74" height="74" rx="37" fill="url(#paint1_linear_1_1820)" fill-opacity="0.1"/>
<rect x="13.1666" y="12.5" width="73" height="73" rx="36.5" stroke="url(#paint2_linear_1_1820)" stroke-opacity="0.2"/>
<path d="M47.5456 53.1814C46.5909 53.1814 46.0317 52.644 46.0317 51.6796V50.5637C42.0222 50.2881 38.0264 49.4615 33.8805 47.877V45.6038C38.981 47.8633 44.0952 48.6624 49.6594 48.6624C55.2373 48.6624 60.3514 47.8633 65.4519 45.6038V47.877C61.306 49.4615 57.3102 50.2881 53.3007 50.5637V51.6796C53.3007 52.644 52.7415 53.1814 51.7869 53.1814H47.5456ZM38.0946 62.3432H61.2378C64.0609 62.3432 65.4519 60.9656 65.4519 58.1412V44.7359C65.4519 41.9115 64.0609 40.5338 61.2378 40.5338H38.0946C35.2852 40.5338 33.8805 41.9115 33.8805 44.7359V58.1412C33.8805 60.9656 35.2852 62.3432 38.0946 62.3432ZM42.745 41.7324H44.8589V39.2938C44.8589 38.2467 45.4726 37.6543 46.5363 37.6543H52.7961C53.8599 37.6543 54.4599 38.2467 54.4599 39.2938V41.7048H56.5737V39.4454C56.5737 36.8552 55.2235 35.6428 52.7552 35.6428H46.5636C44.2316 35.6428 42.745 36.8552 42.745 39.4454V41.7324Z" fill="#CAFF33"/>
<defs>
<linearGradient id="paint0_linear_1_1820" x1="49.6666" y1="0" x2="49.6666" y2="98" gradientUnits="userSpaceOnUse">
<stop stop-color="#CAFF33"/>
<stop offset="1" stop-color="#CAFF33" stop-opacity="0"/>
</linearGradient>
<linearGradient id="paint1_linear_1_1820" x1="49.6666" y1="-37" x2="49.6666" y2="203" gradientUnits="userSpaceOnUse">
<stop stop-color="#CAFF33"/>
<stop offset="0.467671" stop-color="#CAFF33" stop-opacity="0"/>
</linearGradient>
<linearGradient id="paint2_linear_1_1820" x1="49.6666" y1="-116.5" x2="49.6666" y2="153" gradientUnits="userSpaceOnUse">
<stop stop-color="#CAFF33"/>
<stop offset="0.716291" stop-color="#CAFF33" stop-opacity="0"/>
</linearGradient>
</defs>
</svg>
