<svg width="99" height="98" viewBox="0 0 99 98" fill="none" xmlns="http://www.w3.org/2000/svg">
<rect x="0.333374" width="98" height="98" rx="49" fill="url(#paint0_linear_1_1841)" fill-opacity="0.05"/>
<rect x="12.3334" y="12" width="74" height="74" rx="37" fill="url(#paint1_linear_1_1841)" fill-opacity="0.1"/>
<rect x="12.8334" y="12.5" width="73" height="73" rx="36.5" stroke="url(#paint2_linear_1_1841)" stroke-opacity="0.2"/>
<path d="M49.3334 42.625C47.573 42.625 46.1459 44.0521 46.1459 45.8125C46.1459 47.5729 47.573 49 49.3334 49C51.0938 49 52.5209 47.5729 52.5209 45.8125C52.5209 44.0521 51.0938 42.625 49.3334 42.625Z" fill="#CAFF33"/>
<path fill-rule="evenodd" clip-rule="evenodd" d="M34.4584 38.9062C34.4584 37.4392 35.6476 36.25 37.1146 36.25H61.5521C63.0191 36.25 64.2084 37.4392 64.2084 38.9062V52.7188C64.2084 54.1858 63.0191 55.375 61.5521 55.375H37.1146C35.6476 55.375 34.4584 54.1858 34.4584 52.7188V38.9062ZM44.0209 45.8125C44.0209 42.8785 46.3994 40.5 49.3334 40.5C52.2674 40.5 54.6459 42.8785 54.6459 45.8125C54.6459 48.7465 52.2674 51.125 49.3334 51.125C46.3994 51.125 44.0209 48.7465 44.0209 45.8125ZM58.8959 44.75C58.3091 44.75 57.8334 45.2257 57.8334 45.8125V45.8231C57.8334 46.4099 58.3091 46.8856 58.8959 46.8856H58.9065C59.4933 46.8856 59.969 46.4099 59.969 45.8231V45.8125C59.969 45.2257 59.4933 44.75 58.9065 44.75H58.8959ZM38.7084 45.8125C38.7084 45.2257 39.1841 44.75 39.7709 44.75H39.7815C40.3683 44.75 40.844 45.2257 40.844 45.8125V45.8231C40.844 46.4099 40.3683 46.8856 39.7815 46.8856H39.7709C39.1841 46.8856 38.7084 46.4099 38.7084 45.8231V45.8125Z" fill="#CAFF33"/>
<path d="M35.5209 57.5C34.9341 57.5 34.4584 57.9757 34.4584 58.5625C34.4584 59.1493 34.9341 59.625 35.5209 59.625C43.1709 59.625 50.5804 60.6481 57.6206 62.5644C59.3072 63.0235 61.0209 61.7738 61.0209 59.9864V58.5625C61.0209 57.9757 60.5452 57.5 59.9584 57.5H35.5209Z" fill="#CAFF33"/>
<defs>
<linearGradient id="paint0_linear_1_1841" x1="49.3334" y1="0" x2="49.3334" y2="98" gradientUnits="userSpaceOnUse">
<stop stop-color="#CAFF33"/>
<stop offset="1" stop-color="#CAFF33" stop-opacity="0"/>
</linearGradient>
<linearGradient id="paint1_linear_1_1841" x1="49.3334" y1="-37" x2="49.3334" y2="203" gradientUnits="userSpaceOnUse">
<stop stop-color="#CAFF33"/>
<stop offset="0.467671" stop-color="#CAFF33" stop-opacity="0"/>
</linearGradient>
<linearGradient id="paint2_linear_1_1841" x1="49.3334" y1="-116.5" x2="49.3334" y2="153" gradientUnits="userSpaceOnUse">
<stop stop-color="#CAFF33"/>
<stop offset="0.716291" stop-color="#CAFF33" stop-opacity="0"/>
</linearGradient>
</defs>
</svg>
