<svg width="60" height="60" viewBox="0 0 60 60" fill="none" xmlns="http://www.w3.org/2000/svg">
<path d="M6.77723 28.588L6.77628 28.5908C5.59486 32.0839 5.00037 35.4596 5.00037 38.7155V47.8235C5.00037 49.2043 6.11966 50.3235 7.50037 50.3235H18.7692C20.1499 50.3235 21.2692 49.2042 21.2692 47.8235L21.2692 38.6066L21.2692 38.6024C21.2343 34.4485 21.8967 30.6659 23.2484 27.2481C24.4099 24.3554 25.8001 21.5612 27.4192 18.8656C28.1141 17.7084 27.8101 16.1861 26.6696 15.4261L20.6429 11.4102C19.7277 10.8003 18.4983 10.8489 17.665 11.6086C15.4941 13.588 13.5101 15.9254 11.7117 18.6177L11.711 18.6187C9.63766 21.7394 7.99286 25.0628 6.77723 28.588ZM33.6568 28.588L33.6558 28.5908C32.4744 32.0839 31.8799 35.4596 31.8799 38.7155V47.8235C31.8799 49.2043 32.9992 50.3235 34.3799 50.3235H45.6488C47.0295 50.3235 48.1488 49.2042 48.1488 47.8235L48.1488 38.6066L48.1488 38.6024C48.1139 34.4487 48.7762 30.6662 50.1278 27.2486C51.2893 24.3556 52.6796 21.5614 54.2987 18.8656C54.9937 17.7084 54.6897 16.1861 53.5492 15.4261L47.5225 11.4102C46.6073 10.8003 45.3778 10.8489 44.5446 11.6086C42.3737 13.588 40.3896 15.9254 38.5913 18.6177L38.5906 18.6187C36.5172 21.7394 34.8724 25.0628 33.6568 28.588Z" fill="url(#paint0_linear_1_1874)" stroke="#CAFF33"/>
<defs>
<linearGradient id="paint0_linear_1_1874" x1="30.2062" y1="11" x2="30.2062" y2="49.8235" gradientUnits="userSpaceOnUse">
<stop stop-color="#CAFF33"/>
<stop offset="1" stop-color="#191919"/>
</linearGradient>
</defs>
</svg>
