<svg width="78" height="78" viewBox="0 0 78 78" fill="none" xmlns="http://www.w3.org/2000/svg">
<rect width="78" height="78" rx="39" fill="url(#paint0_linear_1_1951)" fill-opacity="0.05"/>
<rect x="10" y="10" width="58" height="58" rx="29" fill="url(#paint1_linear_1_1951)" fill-opacity="0.1"/>
<rect x="10.5" y="10.5" width="57" height="57" rx="28.5" stroke="url(#paint2_linear_1_1951)" stroke-opacity="0.2"/>
<g clip-path="url(#clip0_1_1951)">
<path d="M41.6921 30.8784C41.725 30.9169 41.7305 30.9279 41.736 30.9279C42.2804 31.0049 42.5334 31.4118 42.8248 31.8187C43.1602 32.2806 43.5617 32.704 43.9906 33.0889C45.1178 34.1062 45.8107 35.3379 46.0416 36.8391C46.443 39.4676 44.9364 42.1675 42.4619 43.2178C38.7062 44.8124 34.5106 42.3874 34.0762 38.3293C33.8452 36.1683 34.6371 34.3811 36.2867 32.9734C36.8201 32.517 37.2655 31.9892 37.6339 31.3898C37.6999 31.2798 37.8209 31.1918 37.9364 31.1368C38.1233 31.0489 38.3323 30.9994 38.5687 30.9169C38.4917 30.8234 38.4368 30.7574 38.3763 30.6914C38.0078 30.312 37.6394 29.9216 37.2655 29.5532C37.1335 29.4212 37.073 29.2837 37.0785 29.0968C37.0895 28.3159 37.084 27.5406 37.084 26.7598C37.084 26.4463 37.469 25.946 37.7824 25.8855C38.1398 25.814 38.5082 25.7755 38.8657 25.704C38.9701 25.682 39.0856 25.616 39.1461 25.5335C39.6685 24.8297 40.5868 24.8242 41.1037 25.5225C41.1752 25.616 41.3126 25.6875 41.4281 25.715C41.758 25.7865 42.0935 25.825 42.4289 25.8855C42.7643 25.9514 43.1217 26.3859 43.1217 26.7268C43.1217 27.5131 43.1163 28.3049 43.1272 29.0913C43.1327 29.2947 43.0668 29.4322 42.9293 29.5752C42.5114 29.9986 42.11 30.433 41.6921 30.8784ZM39.3826 33.9412C39.3661 34.0072 39.3496 34.0457 39.3551 34.0787C39.4265 34.4471 39.2561 34.6066 38.9152 34.7441C38.2663 35.0135 37.9749 35.5579 37.9913 36.2562C38.0078 36.9491 38.3818 37.378 39.0086 37.6035C39.2836 37.7024 39.5695 37.7739 39.8445 37.8674C40.0974 37.9499 40.3503 38.0324 40.5923 38.1313C40.7957 38.2138 40.9112 38.3733 40.8892 38.6042C40.8672 38.8407 40.7188 38.9782 40.5098 39.0167C40.2954 39.0606 40.0644 39.0991 39.8609 39.0496C39.465 38.9562 39.0856 38.7967 38.6677 38.6537C38.4807 38.9012 38.2663 39.1816 38.0078 39.528C38.3983 39.6985 38.7337 39.8745 39.0911 39.9954C39.2946 40.0614 39.3771 40.1494 39.3496 40.3584C39.3331 40.5068 39.3441 40.6608 39.3441 40.8313C39.6575 40.8313 39.9214 40.8313 40.1854 40.8313C40.5648 40.8313 40.5813 40.8313 40.5593 40.4408C40.5483 40.1989 40.6033 40.0669 40.8672 40.0339C41.0047 40.0174 41.1422 39.9405 41.2686 39.869C41.8515 39.55 42.0935 39.0386 42.0825 38.3898C42.0715 37.7739 41.7635 37.3505 41.2137 37.1031C40.9662 36.9931 40.7023 36.9106 40.4383 36.8226C40.1084 36.7126 39.7785 36.6137 39.4485 36.4927C39.2451 36.4157 39.1626 36.2507 39.1791 36.0308C39.1956 35.8218 39.3221 35.6789 39.5145 35.6459C39.7455 35.6074 39.9929 35.5854 40.2184 35.6239C40.4933 35.6734 40.7518 35.7998 41.0432 35.8988C41.2247 35.6184 41.4116 35.3214 41.6316 34.975C41.3786 34.8595 41.1642 34.7166 40.9332 34.6781C40.6088 34.6231 40.5098 34.4746 40.5483 34.1667C40.5593 34.0952 40.4603 33.9522 40.3998 33.9467C40.0699 33.9302 39.7235 33.9412 39.3826 33.9412Z" fill="#CAFF33"/>
<path d="M39.6795 52.989C38.5082 52.989 37.3315 52.956 36.1602 53C35.3739 53.0275 34.7031 52.791 34.0707 52.3731C33.1744 51.7738 32.3551 51.0919 31.6402 50.2781C30.5844 49.0738 29.5177 47.8696 28.4619 46.6654C27.5986 45.6756 27.989 44.2129 29.2207 43.8115C29.3637 43.762 29.5287 43.7455 29.6771 43.7455C30.6559 43.74 31.6402 43.7345 32.619 43.751C32.7565 43.751 32.9214 43.8225 33.0204 43.916C33.6913 44.5648 34.3511 45.2302 35.0055 45.8955C35.1375 46.0275 35.2584 46.055 35.4454 46.0275C35.8413 45.967 36.2482 45.912 36.6496 45.912C38.5027 45.901 40.3503 45.9065 42.2034 45.9065C42.8358 45.9065 43.3032 46.231 43.4682 46.7698C43.7211 47.5837 43.1273 48.348 42.2199 48.3535C40.9937 48.359 39.762 48.3535 38.5357 48.3535C38.3158 48.3535 38.0958 48.348 37.8759 48.3535C37.48 48.3645 37.2215 48.6174 37.216 48.9749C37.216 49.3378 37.4745 49.6127 37.8649 49.6127C39.817 49.6182 41.769 49.6182 43.7211 49.6127C44.117 49.6127 44.403 49.3928 44.6779 49.1288C45.9536 47.9026 47.2294 46.6764 48.5106 45.4556C49.033 44.9552 49.7258 44.9332 50.2207 45.3786C50.7541 45.8625 50.7651 46.6434 50.2262 47.1878C49.6599 47.7651 49.0825 48.3095 48.5106 48.8649C47.2459 50.0911 45.9811 51.3119 44.7219 52.5381C44.414 52.835 44.073 52.989 43.6386 52.989C42.3189 52.9835 40.9992 52.989 39.6795 52.989Z" fill="#CAFF33"/>
<path d="M33.1359 29.751C33.6693 30.2844 34.2027 30.8177 34.725 31.3401C34.4006 31.6646 34.0597 32.0055 33.7188 32.3409C33.2129 31.8185 32.6795 31.2687 32.1681 30.7408C32.4705 30.4328 32.8115 30.0809 33.1359 29.751Z" fill="#CAFF33"/>
<path d="M47.0204 29.751C47.3449 30.0754 47.6803 30.4218 47.9937 30.7353C47.4713 31.2577 46.9269 31.802 46.3991 32.3244C46.0801 32.0055 45.7447 31.6591 45.4093 31.3236C45.9317 30.8122 46.4705 30.2844 47.0204 29.751Z" fill="#CAFF33"/>
<path d="M48.2851 38.4171C48.2851 37.9497 48.2796 37.5208 48.2906 37.0919C48.2906 37.0369 48.3951 36.9379 48.4501 36.9379C49.1209 36.9269 49.7863 36.9269 50.4572 36.9379C50.5122 36.9379 50.6166 37.0204 50.6166 37.0644C50.6276 37.5098 50.6221 37.9552 50.6221 38.4171C49.8358 38.4171 49.077 38.4171 48.2851 38.4171Z" fill="#CAFF33"/>
<path d="M31.8547 38.4336C31.0958 38.4336 30.3865 38.4391 29.6716 38.4281C29.6166 38.4281 29.5287 38.3236 29.5232 38.2632C29.5122 37.8782 29.5067 37.4933 29.5232 37.1084C29.5232 37.0479 29.6331 36.9379 29.6936 36.9379C30.3535 36.9269 31.0133 36.9269 31.6732 36.9379C31.7337 36.9379 31.8437 37.0259 31.8437 37.0809C31.8602 37.5098 31.8547 37.9497 31.8547 38.4336Z" fill="#CAFF33"/>
</g>
<defs>
<linearGradient id="paint0_linear_1_1951" x1="39" y1="0" x2="39" y2="78" gradientUnits="userSpaceOnUse">
<stop stop-color="#CAFF33"/>
<stop offset="1" stop-color="#CAFF33" stop-opacity="0"/>
</linearGradient>
<linearGradient id="paint1_linear_1_1951" x1="39" y1="-28.4054" x2="39" y2="159.703" gradientUnits="userSpaceOnUse">
<stop stop-color="#CAFF33"/>
<stop offset="0.467671" stop-color="#CAFF33" stop-opacity="0"/>
</linearGradient>
<linearGradient id="paint2_linear_1_1951" x1="39" y1="-90.7162" x2="39" y2="120.514" gradientUnits="userSpaceOnUse">
<stop stop-color="#CAFF33"/>
<stop offset="0.716291" stop-color="#CAFF33" stop-opacity="0"/>
</linearGradient>
<clipPath id="clip0_1_1951">
<rect width="22.6277" height="28" fill="white" transform="translate(28 25)"/>
</clipPath>
</defs>
</svg>
