<svg width="68" height="68" viewBox="0 0 68 68" fill="none" xmlns="http://www.w3.org/2000/svg">
<rect width="68" height="68" rx="34" fill="url(#paint0_linear_116_11716)" fill-opacity="0.05"/>
<rect x="8" y="8" width="52" height="52" rx="26" fill="url(#paint1_linear_116_11716)" fill-opacity="0.1"/>
<rect x="8.5" y="8.5" width="51" height="51" rx="25.5" stroke="url(#paint2_linear_116_11716)" stroke-opacity="0.2"/>
<path d="M42.8418 39.1449C42.5091 39.9135 42.1153 40.6211 41.659 41.2715C41.0371 42.1583 40.5278 42.7721 40.1354 43.113C39.527 43.6724 38.8752 43.959 38.1772 43.9753C37.6761 43.9753 37.0718 43.8327 36.3684 43.5434C35.6626 43.2555 35.014 43.113 34.421 43.113C33.7991 43.113 33.132 43.2555 32.4185 43.5434C31.704 43.8327 31.1283 43.9834 30.6882 43.9984C30.0188 44.0269 29.3517 43.7322 28.6857 43.113C28.2607 42.7422 27.729 42.1067 27.0921 41.2063C26.4088 40.2449 25.847 39.13 25.4069 37.8589C24.9355 36.486 24.6992 35.1565 24.6992 33.8694C24.6992 32.3951 25.0178 31.1235 25.6559 30.0578C26.1574 29.2019 26.8246 28.5267 27.6596 28.0311C28.4946 27.5354 29.3969 27.2828 30.3685 27.2666C30.9002 27.2666 31.5974 27.4311 32.4637 27.7543C33.3277 28.0786 33.8824 28.243 34.1256 28.243C34.3075 28.243 34.9237 28.0507 35.9684 27.6674C36.9564 27.3119 37.7902 27.1647 38.4732 27.2226C40.3241 27.372 41.7147 28.1017 42.6395 29.4162C40.9841 30.4192 40.1653 31.824 40.1816 33.6262C40.1965 35.03 40.7057 36.1981 41.7066 37.1256C42.1601 37.5561 42.6667 37.8888 43.2302 38.1251C43.108 38.4795 42.979 38.819 42.8418 39.1449ZM38.5968 22.4404C38.5968 23.5406 38.1948 24.5679 37.3936 25.5188C36.4267 26.6492 35.2572 27.3024 33.989 27.1993C33.9729 27.0673 33.9635 26.9284 33.9635 26.7824C33.9635 25.7261 34.4233 24.5958 35.2399 23.6715C35.6475 23.2036 36.166 22.8145 36.7948 22.5041C37.4221 22.1983 38.0156 22.0292 38.5737 22.0002C38.59 22.1473 38.5968 22.2944 38.5968 22.4404V22.4404Z" fill="#CAFF33"/>
<defs>
<linearGradient id="paint0_linear_116_11716" x1="34" y1="0" x2="34" y2="68" gradientUnits="userSpaceOnUse">
<stop stop-color="#CAFF33"/>
<stop offset="1" stop-color="#CAFF33" stop-opacity="0"/>
</linearGradient>
<linearGradient id="paint1_linear_116_11716" x1="34" y1="-26.4324" x2="34" y2="142.216" gradientUnits="userSpaceOnUse">
<stop stop-color="#CAFF33"/>
<stop offset="0.467671" stop-color="#CAFF33" stop-opacity="0"/>
</linearGradient>
<linearGradient id="paint2_linear_116_11716" x1="34" y1="-82.2973" x2="34" y2="107.081" gradientUnits="userSpaceOnUse">
<stop stop-color="#CAFF33"/>
<stop offset="0.716291" stop-color="#CAFF33" stop-opacity="0"/>
</linearGradient>
</defs>
</svg>
