<svg width="68" height="68" viewBox="0 0 68 68" fill="none" xmlns="http://www.w3.org/2000/svg">
<rect width="68" height="68" rx="34" fill="url(#paint0_linear_116_11711)" fill-opacity="0.05"/>
<rect x="8" y="8" width="52" height="52" rx="26" fill="url(#paint1_linear_116_11711)" fill-opacity="0.1"/>
<rect x="8.5" y="8.5" width="51" height="51" rx="25.5" stroke="url(#paint2_linear_116_11711)" stroke-opacity="0.2"/>
<g clip-path="url(#clip0_116_11711)">
<path d="M46 34C46 27.3726 40.6274 22 34 22C27.3726 22 22 27.3726 22 34C22 39.9895 26.3882 44.954 32.125 45.8542V37.4688H29.0781V34H32.125V31.3563C32.125 28.3488 33.9166 26.6875 36.6576 26.6875C37.9701 26.6875 39.3438 26.9219 39.3438 26.9219V29.875H37.8306C36.34 29.875 35.875 30.8001 35.875 31.75V34H39.2031L38.6711 37.4688H35.875V45.8542C41.6118 44.954 46 39.9895 46 34Z" fill="#CAFF33"/>
<path d="M38.6711 37.4688L39.2031 34H35.875V31.75C35.875 30.801 36.34 29.875 37.8306 29.875H39.3438V26.9219C39.3438 26.9219 37.9705 26.6875 36.6576 26.6875C33.9166 26.6875 32.125 28.3488 32.125 31.3563V34H29.0781V37.4688H32.125V45.8542C33.3674 46.0486 34.6326 46.0486 35.875 45.8542V37.4688H38.6711Z" fill="#1C1C1C"/>
</g>
<defs>
<linearGradient id="paint0_linear_116_11711" x1="34" y1="0" x2="34" y2="68" gradientUnits="userSpaceOnUse">
<stop stop-color="#CAFF33"/>
<stop offset="1" stop-color="#CAFF33" stop-opacity="0"/>
</linearGradient>
<linearGradient id="paint1_linear_116_11711" x1="34" y1="-26.4324" x2="34" y2="142.216" gradientUnits="userSpaceOnUse">
<stop stop-color="#CAFF33"/>
<stop offset="0.467671" stop-color="#CAFF33" stop-opacity="0"/>
</linearGradient>
<linearGradient id="paint2_linear_116_11711" x1="34" y1="-82.2973" x2="34" y2="107.081" gradientUnits="userSpaceOnUse">
<stop stop-color="#CAFF33"/>
<stop offset="0.716291" stop-color="#CAFF33" stop-opacity="0"/>
</linearGradient>
<clipPath id="clip0_116_11711">
<rect width="24" height="24" fill="white" transform="translate(22 22)"/>
</clipPath>
</defs>
</svg>
