<svg width="78" height="78" viewBox="0 0 78 78" fill="none" xmlns="http://www.w3.org/2000/svg">
<rect width="78" height="78" rx="39" fill="url(#paint0_linear_1_1964)" fill-opacity="0.05"/>
<rect x="10" y="10" width="58" height="58" rx="29" fill="url(#paint1_linear_1_1964)" fill-opacity="0.1"/>
<rect x="10.5" y="10.5" width="57" height="57" rx="28.5" stroke="url(#paint2_linear_1_1964)" stroke-opacity="0.2"/>
<g clip-path="url(#clip0_1_1964)">
<path d="M48.6576 38.0183C48.6576 38.7661 48.6677 39.509 48.6526 40.2569C48.6426 40.6603 48.758 41.0146 48.9688 41.3491C49.5108 42.2249 50.2284 42.958 50.9561 43.6812C51.2271 43.9518 51.5082 44.2077 51.7942 44.4586C51.9348 44.5816 52 44.7095 52 44.9014C51.99 45.7231 51.99 46.5398 51.995 47.3614C52 48.0453 51.6989 48.557 51.0716 48.8424C50.4292 49.1326 49.827 49.0096 49.3 48.5619C48.211 47.6271 47.127 46.6874 46.0429 45.7526C45.3052 45.113 44.5725 44.4635 43.8197 43.8436C43.5537 43.6222 43.2375 43.4598 42.9314 43.2925C42.4797 43.0465 41.9929 42.9137 41.466 42.9334C41.0846 42.9481 40.6931 42.9531 40.3117 42.9235C39.7546 42.8793 39.3582 42.5004 39.2829 41.9789C39.2126 41.5213 39.4887 41.0293 39.9504 40.8522C40.126 40.7833 40.3217 40.7538 40.5125 40.7538C41.9578 40.744 43.4032 40.7489 44.8535 40.7489C45.3955 40.7489 45.5913 40.557 45.5913 40.0207C45.5913 38.9383 45.5862 37.8559 45.5913 36.7735C45.5963 36.3602 45.4507 36.0355 45.1346 35.755C43.3128 34.1511 41.5011 32.5373 39.6844 30.9235C39.1976 30.4906 39.1424 29.851 39.5489 29.3836C39.9504 28.9162 40.6078 28.8719 41.1247 29.2655C43.4483 31.0367 45.7669 32.8079 48.1006 34.5693C48.487 34.8596 48.6677 35.2138 48.6626 35.6812C48.6526 36.4586 48.6576 37.236 48.6576 38.0183Z" fill="#CAFF33"/>
<path d="M25.005 46.2053C25.005 45.7625 25.01 45.3197 25 44.8769C24.995 44.7047 25.0652 44.5915 25.1807 44.4735C25.9385 43.7109 26.6863 42.9384 27.429 42.161C27.5846 41.9987 27.7 41.8068 27.8355 41.6297C28.1918 41.1524 28.3574 40.6309 28.3424 40.0208C28.3123 38.6137 28.3474 37.2016 28.3273 35.7896C28.3173 35.2336 28.518 34.84 28.9747 34.4956C31.2933 32.7637 33.5868 31.0024 35.8903 29.2459C36.3721 28.8769 37.0346 28.9359 37.426 29.3788C37.8275 29.8314 37.7924 30.4808 37.3257 30.904C36.618 31.5436 35.9004 32.1684 35.1877 32.8031C34.0586 33.8019 32.9294 34.8056 31.8002 35.8043C31.5342 36.0405 31.4037 36.3259 31.4037 36.6703C31.4037 37.8166 31.3987 38.963 31.4037 40.1143C31.4037 40.5374 31.6245 40.7441 32.0612 40.7441C33.5517 40.749 35.0372 40.7441 36.5277 40.749C37.2303 40.749 37.7221 41.2312 37.7071 41.8806C37.697 42.3775 37.3307 42.8252 36.8238 42.899C36.5227 42.9433 36.2065 42.963 35.9004 42.9335C34.8716 42.8351 34.0034 43.2041 33.2355 43.8043C32.4526 44.4144 31.7199 45.0934 30.9721 45.7379C29.8731 46.6826 28.779 47.6371 27.6749 48.5768C26.7816 49.3394 25.4617 49.0048 25.0803 47.9175C25.0301 47.7797 25.0151 47.6272 25.01 47.4845C25 47.0614 25.005 46.6334 25.005 46.2053Z" fill="#CAFF33"/>
<path d="M39.2127 39.0369C39.2127 39.2731 39.2127 39.4945 39.2127 39.7356C38.7911 39.7356 38.3896 39.7356 37.953 39.7356C37.953 39.5437 37.948 39.3567 37.953 39.1698C37.958 39.032 37.9179 38.973 37.7723 38.9385C37.3558 38.8401 36.9694 38.6728 36.608 38.3875C36.8389 38.0874 37.0597 37.802 37.2604 37.5363C37.6419 37.679 37.9881 37.8463 38.3545 37.9299C38.6205 37.989 38.9166 37.9496 39.1926 37.9053C39.4034 37.8709 39.5389 37.7085 39.5539 37.4871C39.574 37.2608 39.4536 37.1033 39.2528 37.0246C38.9116 36.8967 38.5552 36.7983 38.209 36.6851C37.958 36.6015 37.6971 36.5277 37.4511 36.4244C36.874 36.1833 36.5679 35.7552 36.5528 35.1255C36.5378 34.4662 36.7887 33.9348 37.3909 33.6495C37.7824 33.4625 38.1186 33.3247 37.9229 32.7786C38.3495 32.7786 38.7209 32.7737 39.0972 32.7885C39.1374 32.7885 39.2077 32.9115 39.2077 32.9803C39.2327 33.3985 39.2327 33.3887 39.6292 33.5265C39.8601 33.6052 40.0809 33.7183 40.3318 33.8315C40.121 34.1513 39.9504 34.4318 39.7597 34.6974C39.7296 34.7368 39.6091 34.7319 39.5389 34.7122C39.2077 34.6286 38.8865 34.5203 38.5552 34.4564C38.4248 34.4318 38.2742 34.4711 38.1387 34.5056C37.938 34.5597 37.8025 34.6925 37.7874 34.909C37.7723 35.1206 37.8677 35.2829 38.0634 35.3616C38.3194 35.465 38.5803 35.5437 38.8413 35.6273C39.1274 35.7208 39.4235 35.7897 39.6995 35.893C40.4974 36.1981 40.8186 36.6802 40.7785 37.4723C40.7383 38.2005 40.2816 38.7417 39.5288 38.9533C39.4385 38.9828 39.3432 39.0074 39.2127 39.0369Z" fill="#CAFF33"/>
</g>
<defs>
<linearGradient id="paint0_linear_1_1964" x1="39" y1="0" x2="39" y2="78" gradientUnits="userSpaceOnUse">
<stop stop-color="#CAFF33"/>
<stop offset="1" stop-color="#CAFF33" stop-opacity="0"/>
</linearGradient>
<linearGradient id="paint1_linear_1_1964" x1="39" y1="-28.4054" x2="39" y2="159.703" gradientUnits="userSpaceOnUse">
<stop stop-color="#CAFF33"/>
<stop offset="0.467671" stop-color="#CAFF33" stop-opacity="0"/>
</linearGradient>
<linearGradient id="paint2_linear_1_1964" x1="39" y1="-90.7162" x2="39" y2="120.514" gradientUnits="userSpaceOnUse">
<stop stop-color="#CAFF33"/>
<stop offset="0.716291" stop-color="#CAFF33" stop-opacity="0"/>
</linearGradient>
<clipPath id="clip0_1_1964">
<rect width="27" height="20" fill="white" transform="translate(25 29)"/>
</clipPath>
</defs>
</svg>
