<svg width="36" height="36" viewBox="0 0 36 36" fill="none" xmlns="http://www.w3.org/2000/svg">
<path d="M34.5431 21.8823C32.2271 31.1721 22.8175 36.8251 13.5267 34.5091C4.24022 32.193 -1.4134 22.7835 0.903211 13.4943C3.2182 4.20344 12.6272 -1.45072 21.9153 0.865354C31.2056 3.18142 36.8587 12.592 34.5426 21.8823H34.5431Z" fill="#262626"/>
<path fill-rule="evenodd" clip-rule="evenodd" d="M22.9454 15.6725C23.1792 14.1072 21.9873 13.2658 20.3577 12.7044L20.8863 10.584L19.5953 10.2623L19.0806 12.3269C18.7417 12.2423 18.3932 12.1625 18.0469 12.0835L18.5652 10.0054L17.2753 9.68372L16.7463 11.8034C16.4654 11.7394 16.1897 11.6762 15.9221 11.6097L15.9235 11.603L14.1435 11.1586L13.8002 12.5371C13.8002 12.5371 14.7578 12.7566 14.7376 12.7702C15.2604 12.9007 15.3552 13.2466 15.339 13.5209L14.7369 15.9365C14.7729 15.9457 14.8196 15.9589 14.871 15.9795L14.735 15.9457L13.8906 19.3296C13.8267 19.4884 13.6645 19.7266 13.2991 19.6362C13.312 19.6549 12.361 19.402 12.361 19.402L11.7202 20.8798L13.4002 21.2985C13.5899 21.346 13.7772 21.3949 13.9625 21.4433C14.0825 21.4746 14.2016 21.5057 14.32 21.536L13.7858 23.681L15.0751 24.0027L15.6044 21.8808C15.9562 21.9764 16.2981 22.0646 16.6327 22.1477L16.1055 24.2597L17.3962 24.5813L17.9303 22.4407C20.1313 22.8572 21.7866 22.6892 22.4825 20.6989C23.0439 19.0961 22.455 18.1716 21.297 17.5683C22.1403 17.3731 22.7755 16.8184 22.945 15.6725H22.9454ZM19.9959 19.8078C19.6295 21.2789 17.3264 20.6702 16.2736 20.392C16.1793 20.367 16.095 20.3448 16.0231 20.3269L16.7318 17.4856C16.8198 17.5075 16.9272 17.5316 17.0489 17.5589C18.1381 17.8034 20.3703 18.3043 19.9963 19.8078H19.9959ZM17.2678 16.2406C18.1462 16.4749 20.0611 16.9858 20.3947 15.6494C20.7357 14.2823 18.8737 13.8702 17.9643 13.669C17.8621 13.6464 17.7719 13.6264 17.6982 13.6081L17.0556 16.185C17.1165 16.2002 17.1878 16.2192 17.2678 16.2406Z" fill="#CAFF33"/>
</svg>
