<svg width="35" height="36" viewBox="0 0 35 36" fill="none" xmlns="http://www.w3.org/2000/svg">
<path d="M34.587 17.6875C34.587 27.2141 26.8644 34.9369 17.3379 34.9369C7.81125 34.9369 0.088501 27.2141 0.088501 17.6875C0.088501 8.16098 7.81125 0.438232 17.3379 0.438232C26.8642 0.438232 34.587 8.16098 34.587 17.6875Z" fill="#262626"/>
<g opacity="0.8">
<path d="M17.2824 9.68372L17.1759 10.0458V20.5541L17.2824 20.6604L22.1602 17.7772L17.2824 9.68372Z" fill="#CAFF33"/>
<path d="M17.2826 9.68372L12.4048 17.7772L17.2826 20.6605V15.5601V9.68372Z" fill="#CAFF33"/>
<path d="M17.2824 22.2475L17.2224 22.3207V26.064L17.2824 26.2393L22.1632 19.3657L17.2824 22.2475Z" fill="#CAFF33"/>
<path d="M17.2825 26.2394V22.2475L12.4047 19.3657L17.2825 26.2394Z" fill="#CAFF33"/>
<path d="M17.2826 20.6605L22.1603 17.7773L17.2826 15.5602V20.6605Z" fill="#CAFF33"/>
<path d="M12.4047 17.7773L17.2824 20.6605V15.5602L12.4047 17.7773Z" fill="#CAFF33"/>
</g>
</svg>
