<svg width="35" height="36" viewBox="0 0 35 36" fill="none" xmlns="http://www.w3.org/2000/svg">
<path fill-rule="evenodd" clip-rule="evenodd" d="M17.4872 35.0278C27.0642 35.0278 34.8279 27.2641 34.8279 17.687C34.8279 8.11002 27.0642 0.346313 17.4872 0.346313C7.91019 0.346313 0.146484 8.11002 0.146484 17.687C0.146484 27.2641 7.91019 35.0278 17.4872 35.0278Z" fill="#262626"/>
<path fill-rule="evenodd" clip-rule="evenodd" d="M15.9678 9.68372C16.9201 9.68372 17.869 9.68372 18.8214 9.68372C18.7653 10.328 18.7058 10.9757 18.6533 11.6199C19.7632 11.7005 20.8451 12.0576 21.8185 12.5863C21.3983 13.6437 20.9747 14.7011 20.551 15.7585C19.7317 15.0617 18.6533 14.6766 17.5784 14.6906C17.3088 14.6976 17.0287 14.7501 16.8046 14.9042C16.6575 15.0057 16.549 15.1633 16.5175 15.3383C16.493 15.4784 16.5 15.6359 16.577 15.762C16.6646 15.902 16.8186 15.9861 16.9727 16.0386C17.2878 16.1506 17.6274 16.1576 17.9565 16.1926C18.7303 16.2872 19.5076 16.4202 20.2394 16.6968C20.8066 16.9139 21.3493 17.2395 21.7379 17.7157C22.1056 18.1534 22.3192 18.7066 22.3997 19.2738C22.4942 19.9285 22.4662 20.6078 22.2631 21.245C22.1056 21.7562 21.836 22.2324 21.4859 22.635C20.7611 23.4754 19.6967 23.9795 18.6043 24.1091C18.6393 24.7989 18.6813 25.4851 18.7198 26.1749C17.8165 26.1749 16.9166 26.1749 16.0168 26.1749C16.0518 25.4921 16.0973 24.8094 16.1289 24.1266C15.4041 24.1021 14.6863 23.941 14.0106 23.6854C13.3558 23.4368 12.7326 23.1077 12.1514 22.7226C12.5785 21.6232 13.0057 20.5238 13.4363 19.4208C13.923 19.8305 14.4412 20.2121 15.0084 20.5028C15.6177 20.8144 16.2934 21.0139 16.9797 21.0209C17.3053 21.0244 17.6414 21.0069 17.9495 20.8949C18.1386 20.8249 18.3242 20.7023 18.4082 20.5098C18.4957 20.3067 18.4887 20.0511 18.3557 19.869C18.2611 19.7465 18.1281 19.6624 17.988 19.6029C17.799 19.5259 17.6029 19.4839 17.4033 19.4524C16.6681 19.3333 15.9293 19.2353 15.2185 19.0042C14.6478 18.8186 14.0911 18.5595 13.6359 18.1604C13.3488 17.9118 13.1107 17.6072 12.9427 17.264C12.6906 16.7529 12.596 16.1751 12.603 15.6079C12.603 14.9742 12.7326 14.3299 13.0477 13.7732C13.3208 13.2761 13.7375 12.8699 14.2066 12.5583C14.7738 12.1836 15.4076 11.9281 16.0518 11.7215C16.0238 11.0422 15.9958 10.363 15.9678 9.68372Z" fill="#CAFF33"/>
</svg>
