<svg width="36" height="36" viewBox="0 0 36 36" fill="none" xmlns="http://www.w3.org/2000/svg">
<path d="M35.3515 17.6875C35.3515 27.2141 27.6289 34.9369 18.1024 34.9369C8.57578 34.9369 0.853027 27.2141 0.853027 17.6875C0.853027 8.16098 8.57578 0.438232 18.1024 0.438232C27.6288 0.438232 35.3515 8.16098 35.3515 17.6875Z" fill="#262626"/>
<path d="M22.9498 24.8948L22.5518 23.0874C22.5292 22.9811 22.4723 22.9015 22.3812 22.8487C22.2826 22.7955 22.1842 22.7882 22.0857 22.8261L22.0288 22.8487L21.8922 22.8827C21.8315 22.8977 21.7614 22.9149 21.6819 22.9338C21.6023 22.9528 21.5096 22.9716 21.4033 22.9906C21.2976 23.0096 21.1853 23.0268 21.0681 23.0419C20.9507 23.0567 20.824 23.0702 20.6874 23.0817C20.5508 23.0929 20.4146 23.0986 20.278 23.0986C19.3155 23.0986 18.4495 22.8391 17.6804 22.3199C16.9111 21.8006 16.3446 21.0977 15.9808 20.2111H20.3801C20.4637 20.2111 20.5395 20.1828 20.6074 20.1258C20.6759 20.0691 20.7176 19.9991 20.7324 19.9154L21.0052 18.6422C21.0281 18.5288 21.0052 18.4263 20.9372 18.3353C20.8615 18.2443 20.7665 18.1987 20.653 18.1987H15.4352C15.4125 17.6834 15.4125 17.2856 15.4352 17.0051H20.9829C21.1877 17.0051 21.3088 16.9067 21.3467 16.7096L21.6195 15.4136C21.6421 15.3075 21.616 15.2091 21.5399 15.1181C21.472 15.0271 21.3772 14.9815 21.2559 14.9815H15.9355C16.3144 14.1327 16.8828 13.4657 17.6407 12.9807C18.3986 12.4955 19.255 12.253 20.21 12.253C20.2404 12.2379 20.3521 12.2417 20.5452 12.2644C20.7384 12.2871 20.8485 12.2966 20.8749 12.2928C20.9011 12.289 21 12.3005 21.1704 12.3268C21.341 12.3534 21.4263 12.3666 21.4263 12.3666L21.6252 12.4064C21.6822 12.4179 21.7258 12.4272 21.756 12.4349L21.8015 12.4462C21.9 12.4766 21.9907 12.4671 22.0744 12.4179C22.1578 12.3684 22.2109 12.2947 22.2337 12.1961L22.7226 10.3886C22.7452 10.2901 22.7337 10.1991 22.6885 10.1158C22.6202 10.0247 22.5443 9.96786 22.4609 9.9452C21.7638 9.77092 21.0283 9.68372 20.2555 9.68372C18.5576 9.68372 17.0401 10.1689 15.7024 11.1389C14.3647 12.1089 13.4419 13.3899 12.9341 14.9813H11.8202C11.714 14.9813 11.6269 15.0154 11.5587 15.0836C11.4906 15.1517 11.4564 15.2389 11.4564 15.3451V16.6411C11.4564 16.7471 11.4905 16.8343 11.5587 16.9024C11.627 16.9707 11.7142 17.0046 11.8202 17.0046H12.5819C12.559 17.3685 12.5554 17.7662 12.5704 18.1984H11.8202C11.7216 18.1984 11.6364 18.2344 11.5644 18.3064C11.4925 18.3783 11.4564 18.4636 11.4564 18.562V19.8467C11.4564 19.9454 11.4925 20.0304 11.5644 20.1026C11.6364 20.1746 11.7216 20.2103 11.8202 20.2103H12.9002C13.3776 21.8852 14.2796 23.2173 15.6059 24.2063C16.9323 25.1956 18.4821 25.6899 20.2555 25.6899C20.3996 25.6899 20.5454 25.6864 20.6933 25.6785C20.8414 25.6709 20.9794 25.6594 21.1083 25.6445C21.2371 25.6295 21.3641 25.6126 21.4892 25.5935C21.6141 25.5744 21.7279 25.5558 21.8301 25.5365C21.9324 25.5177 22.0291 25.4988 22.1199 25.48C22.211 25.4608 22.2924 25.4402 22.3646 25.4173C22.4365 25.3948 22.4969 25.3776 22.5463 25.3665C22.5957 25.3551 22.6354 25.3416 22.6655 25.3267L22.7225 25.3153C22.8059 25.285 22.8704 25.23 22.9157 25.1502C22.9613 25.0711 22.9724 24.9857 22.9498 24.8948Z" fill="#CAFF33"/>
</svg>
