<svg width="39" height="39" viewBox="0 0 39 39" fill="none" xmlns="http://www.w3.org/2000/svg">
<rect x="0.628784" y="0.379486" width="38.1496" height="38.1496" rx="19.0748" fill="#CAFF33"/>
<path fill-rule="evenodd" clip-rule="evenodd" d="M19.7032 13.6018C20.0623 13.6018 20.3535 13.893 20.3535 14.2521V18.8041H24.9054C25.2646 18.8041 25.5557 19.0952 25.5557 19.4543C25.5557 19.8135 25.2646 20.1046 24.9054 20.1046H20.3535V24.6565C20.3535 25.0157 20.0623 25.3068 19.7032 25.3068C19.3441 25.3068 19.0529 25.0157 19.0529 24.6565V20.1046H14.501C14.1418 20.1046 13.8507 19.8135 13.8507 19.4543C13.8507 19.0952 14.1418 18.8041 14.501 18.8041L19.0529 18.8041V14.2521C19.0529 13.893 19.3441 13.6018 19.7032 13.6018Z" fill="#1A1A1A"/>
</svg>
