<svg width="39" height="39" viewBox="0 0 39 39" fill="none" xmlns="http://www.w3.org/2000/svg">
<rect x="0.470825" y="0.320007" width="38.1496" height="38.1496" rx="19.0748" fill="#CAFF33"/>
<path fill-rule="evenodd" clip-rule="evenodd" d="M22.8757 11.3206C22.5824 11.6364 22.6007 12.1301 22.9165 12.4234L25.1019 14.4527L16.1644 14.4527C15.7334 14.4527 15.3841 14.802 15.3841 15.233C15.3841 15.664 15.7334 16.0133 16.1644 16.0133L25.1019 16.0133L22.9165 18.0426C22.6007 18.3359 22.5824 18.8296 22.8757 19.1454C23.1689 19.4612 23.6627 19.4795 23.9785 19.1863L27.62 15.8048C27.779 15.6572 27.8694 15.45 27.8694 15.233C27.8694 15.016 27.779 14.8088 27.62 14.6612L23.9785 11.2797C23.6627 10.9865 23.1689 11.0048 22.8757 11.3206ZM16.216 19.6441C15.9227 19.3283 15.429 19.31 15.1132 19.6033L11.4716 22.9847C11.3126 23.1324 11.2223 23.3396 11.2223 23.5565C11.2223 23.7735 11.3126 23.9807 11.4716 24.1284L15.1132 27.5098C15.429 27.8031 15.9227 27.7848 16.216 27.469C16.5092 27.1532 16.491 26.6594 16.1752 26.3662L13.9898 24.3369H22.9273C23.3582 24.3369 23.7076 23.9875 23.7076 23.5565C23.7076 23.1256 23.3582 22.7762 22.9273 22.7762H13.9898L16.1752 20.7469C16.491 20.4537 16.5092 19.9599 16.216 19.6441Z" fill="#1C1C1C"/>
</svg>
